<svg width="180" height="180" viewBox="0 0 180 180" fill="none" xmlns="http://www.w3.org/2000/svg">
<style>
	path {
		fill: #FF761C;
	}
	@media (prefers-color-scheme: dark) {
		path {
			fill: #FFA41C;
		}
	}
</style>
<path d="M106.452 52.4155C106.452 60.7668 99.0863 67.5369 90 67.5369C80.9138 67.5369 73.5479 60.7668 73.5479 52.4155C73.5479 44.0641 80.9138 37.294 90 37.294C99.0863 37.294 106.452 44.0641 106.452 52.4155Z" />
<path d="M120.162 107.608C120.162 119.299 106.658 119.706 90 119.706C73.3419 119.706 59.8378 119.299 59.8378 107.608C59.8378 95.9164 67.3783 76.6098 90 76.6098C112.622 76.6098 120.162 95.9164 120.162 107.608Z" />
<path d="M46.1277 89.463C55.2139 89.463 62.5798 82.6929 62.5798 74.3415C62.5798 65.9902 55.2139 59.2201 46.1277 59.2201C37.0414 59.2201 29.6755 65.9902 29.6755 74.3415C29.6755 82.6929 37.0414 89.463 46.1277 89.463Z" />
<path d="M150.324 74.3415C150.324 82.6929 142.959 89.463 133.872 89.463C124.786 89.463 117.42 82.6929 117.42 74.3415C117.42 65.9902 124.786 59.2201 133.872 59.2201C142.959 59.2201 150.324 65.9902 150.324 74.3415Z" />
<path fill-rule="evenodd" clip-rule="evenodd" d="M90 168.882C138.601 168.882 178 133.539 178 89.9412C178 65.3498 165.465 43.3847 145.815 28.9069C130.93 17.761 111.394 11 90 11C68.6061 11 49.0696 17.7611 34.1853 28.9071C14.5347 43.3848 2 65.3499 2 89.9412C2 133.539 41.3989 168.882 90 168.882ZM90 151.412C135.382 151.412 171.245 120.231 171.245 82.8235C171.245 45.4158 135.382 14.2353 90 14.2353C44.6175 14.2353 8.7553 45.4158 8.7553 82.8235C8.7553 120.231 44.6175 151.412 90 151.412Z" />
</svg>
