<svg width="165" height="40" fill="none" xmlns="http://www.w3.org/2000/svg">
  <path
    d="M20.925 13.318c0 1.485-1.31 2.689-2.925 2.689-1.615 0-2.925-1.204-2.925-2.689 0-1.484 1.31-2.688 2.925-2.688 1.615 0 2.925 1.204 2.925 2.688zM23.362 23.13c0 2.079-2.4 2.151-5.362 2.151-2.961 0-5.362-.072-5.362-2.15 0-2.08 1.34-5.512 5.362-5.512s5.362 3.433 5.362 5.511zM10.2 19.904c1.616 0 2.925-1.203 2.925-2.688 0-1.484-1.31-2.688-2.925-2.688-1.615 0-2.924 1.204-2.924 2.688 0 1.485 1.31 2.688 2.925 2.688zM28.724 17.216c0 1.485-1.31 2.688-2.925 2.688-1.615 0-2.924-1.203-2.924-2.688 0-1.484 1.31-2.688 2.924-2.688 1.616 0 2.925 1.204 2.925 2.688z"
    fill="currentColor"
  />
  <path
    fill-rule="evenodd"
    clip-rule="evenodd"
    d="M18 34.023c8.64 0 15.644-6.283 15.644-14.033 0-4.372-2.228-8.277-5.721-10.851-2.646-1.981-6.12-3.183-9.923-3.183s-7.277 1.202-9.923 3.183c-3.493 2.574-5.721 6.479-5.721 10.85C2.356 27.74 9.36 34.024 18 34.024zm0-3.105c8.068 0 14.444-5.543 14.444-12.194 0-6.65-6.376-12.193-14.444-12.193-8.068 0-14.444 5.543-14.444 12.193 0 6.65 6.376 12.194 14.444 12.194z"
    fill="currentColor"
  />
  <path
    d="M45.184 20V8.432H46.824c.41-.005.813-.005 1.208 0 .395 0 .717.005.968.016 1.397.043 2.536.307 3.416.792.885.48 1.533 1.141 1.944 1.984.416.837.624 1.819.624 2.944 0 1.163-.219 2.181-.656 3.056-.432.875-1.093 1.557-1.984 2.048-.89.485-2.024.728-3.4.728h-3.76zm2.736-2.168h1.104c.528 0 1.03-.12 1.504-.36.475-.24.861-.63 1.16-1.168.304-.539.456-1.261.456-2.168 0-.805-.128-1.47-.384-1.992-.256-.523-.616-.91-1.08-1.16-.464-.256-1.01-.384-1.64-.384h-1.12v7.232zM60.359 20.16c-.832 0-1.555-.176-2.168-.528a3.679 3.679 0 0 1-1.424-1.488c-.336-.64-.504-1.384-.504-2.232 0-.864.17-1.621.512-2.272a3.79 3.79 0 0 1 1.44-1.528c.618-.363 1.338-.544 2.16-.544.837 0 1.56.184 2.168.552a3.633 3.633 0 0 1 1.416 1.528c.336.65.504 1.405.504 2.264 0 .827-.166 1.56-.496 2.2a3.733 3.733 0 0 1-1.416 1.504c-.614.363-1.344.544-2.192.544zm.016-2c.368 0 .656-.115.864-.344a2.02 2.02 0 0 0 .44-.888 4.858 4.858 0 0 0 .008-2.184 1.84 1.84 0 0 0-.432-.864c-.208-.23-.502-.344-.88-.344-.379 0-.675.112-.888.336-.208.219-.355.504-.44.856a4.568 4.568 0 0 0-.128 1.096c0 .363.04.725.12 1.088.08.357.224.656.432.896.213.235.514.352.904.352zM69.624 20.16c-.779 0-1.477-.173-2.096-.52a3.83 3.83 0 0 1-1.456-1.488c-.352-.64-.528-1.39-.528-2.248 0-.859.173-1.61.52-2.256a3.86 3.86 0 0 1 1.44-1.528c.613-.368 1.32-.552 2.12-.552.736 0 1.363.155 1.88.464a3.17 3.17 0 0 1 1.208 1.224c.288.507.445 1.061.472 1.664h-2.232a2.047 2.047 0 0 0-.184-.584 1.381 1.381 0 0 0-.416-.512c-.176-.144-.41-.216-.704-.216-.475 0-.859.19-1.152.568-.288.373-.432.939-.432 1.696 0 .747.147 1.33.44 1.752.299.421.696.632 1.192.632.288 0 .523-.077.704-.232.181-.155.317-.333.408-.536.09-.203.147-.381.168-.536h2.176a3.211 3.211 0 0 1-.464 1.6 3.203 3.203 0 0 1-1.216 1.168c-.517.293-1.133.44-1.848.44zM77.663 20.16c-.358 0-.72-.059-1.088-.176a3.568 3.568 0 0 1-1.016-.512c-.31-.23-.56-.507-.752-.832a2.27 2.27 0 0 1-.28-1.136v-5.776h2.728v5.408c0 .31.106.568.32.776.213.203.52.304.92.304.384 0 .688-.099.912-.296.224-.203.336-.47.336-.8v-5.392h2.704V20h-2.032l-.32-1.672c-.102.517-.288.91-.56 1.176a2.022 2.022 0 0 1-.92.52c-.336.09-.654.136-.952.136zM84.263 20v-8.272h2.672v1.16c.262-.363.611-.672 1.048-.928.438-.261.976-.392 1.616-.392.278 0 .56.05.848.152.288.096.558.243.808.44.256.192.472.432.648.72a3.479 3.479 0 0 1 1.048-.928 2.787 2.787 0 0 1 1.448-.384c.31 0 .624.056.944.168.32.107.611.277.872.512.267.23.48.53.64.904.166.373.248.83.248 1.368V20h-2.728v-5.12c0-.261-.058-.472-.176-.632a.974.974 0 0 0-.432-.36 1.32 1.32 0 0 0-.552-.12c-.181 0-.362.037-.544.112-.181.075-.333.19-.456.344a.923.923 0 0 0-.184.592V20h-2.72v-5.224a.866.866 0 0 0-.176-.552 1.035 1.035 0 0 0-.432-.336c-.17-.08-.349-.12-.536-.12-.181 0-.365.04-.552.12-.181.075-.333.19-.456.344a.938.938 0 0 0-.176.584V20h-2.72zM102.738 20.16c-.837 0-1.576-.173-2.216-.52a3.743 3.743 0 0 1-1.488-1.464c-.352-.63-.528-1.368-.528-2.216 0-.805.16-1.539.48-2.2a3.878 3.878 0 0 1 1.408-1.592c.614-.4 1.352-.6 2.216-.6.875 0 1.606.184 2.192.552a3.38 3.38 0 0 1 1.32 1.504c.299.635.448 1.363.448 2.184v.68h-5.384c-.005.379.054.699.176.96.123.256.296.45.52.584.224.133.486.2.784.2.342 0 .643-.07.904-.208.267-.144.462-.392.584-.744h2.432a2.9 2.9 0 0 1-.72 1.552 3.835 3.835 0 0 1-1.408.984 4.458 4.458 0 0 1-1.72.344zm-1.56-5.24h2.864c0-.272-.053-.52-.16-.744a1.241 1.241 0 0 0-.48-.544c-.208-.133-.472-.2-.792-.2-.282 0-.533.072-.752.216a1.484 1.484 0 0 0-.504.552 1.533 1.533 0 0 0-.176.72zM108.092 20v-8.272h2.688v1.16c.117-.192.272-.381.464-.568.197-.187.445-.341.744-.464.304-.123.672-.184 1.104-.184.496 0 .962.096 1.4.288a2.44 2.44 0 0 1 1.08.92c.277.416.416.963.416 1.64V20h-2.736v-5.12c0-.363-.118-.635-.352-.816a1.262 1.262 0 0 0-.808-.28c-.203 0-.403.04-.6.12-.198.075-.36.19-.488.344a.842.842 0 0 0-.192.568V20h-2.72zM121.22 20.104c-.795 0-1.411-.099-1.848-.296-.432-.203-.734-.477-.904-.824a2.76 2.76 0 0 1-.248-1.192v-4.2h-1.344v-1.864h1.44l.696-2.536h1.928v2.52h1.816v1.88h-1.816l.008 4.08c0 .165.024.288.072.368a.38.38 0 0 0 .216.16c.09.027.2.04.328.04h1.208v1.64a2.907 2.907 0 0 1-.52.144c-.235.053-.579.08-1.032.08zM126.783 20.16c-.522 0-1-.099-1.432-.296a2.44 2.44 0 0 1-1.016-.88c-.25-.384-.376-.853-.376-1.408 0-.901.347-1.595 1.04-2.08.694-.485 1.782-.73 3.264-.736l.84-.008v-.424c0-.325-.093-.568-.28-.728-.181-.165-.466-.245-.856-.24a2.127 2.127 0 0 0-.84.2c-.282.123-.482.352-.6.688h-2.232c.032-.624.216-1.133.552-1.528.336-.395.784-.685 1.344-.872a6.031 6.031 0 0 1 1.896-.28c.907 0 1.624.11 2.152.328.528.213.904.515 1.128.904.23.384.344.837.344 1.36V20h-2.264l-.232-1.368c-.261.581-.589.981-.984 1.2-.394.219-.877.328-1.448.328zm.936-1.752a1.457 1.457 0 0 0 .96-.36c.128-.117.23-.245.304-.384a.994.994 0 0 0 .12-.448v-1.128l-.672.008c-.277 0-.565.037-.864.112-.293.075-.541.2-.744.376-.202.17-.304.408-.304.712 0 .347.12.619.36.816.24.197.52.296.84.296zM136.954 20.104c-.795 0-1.411-.099-1.848-.296-.432-.203-.733-.477-.904-.824a2.776 2.776 0 0 1-.248-1.192v-4.2h-1.344v-1.864h1.44l.696-2.536h1.928v2.52h1.816v1.88h-1.816l.008 4.08c0 .165.024.288.072.368a.38.38 0 0 0 .216.16c.091.027.2.04.328.04h1.208v1.64a2.883 2.883 0 0 1-.52.144c-.235.053-.579.08-1.032.08zM140.021 20v-8.272h2.592V20h-2.592zm-.008-9.2V8.432h2.616V10.8h-2.616zM148.171 20.16c-.832 0-1.554-.176-2.168-.528a3.681 3.681 0 0 1-1.424-1.488c-.336-.64-.504-1.384-.504-2.232 0-.864.171-1.621.512-2.272a3.796 3.796 0 0 1 1.44-1.528c.619-.363 1.339-.544 2.16-.544.838 0 1.56.184 2.168.552a3.625 3.625 0 0 1 1.416 1.528c.336.65.504 1.405.504 2.264 0 .827-.165 1.56-.496 2.2a3.724 3.724 0 0 1-1.416 1.504c-.613.363-1.344.544-2.192.544zm.016-2c.368 0 .656-.115.864-.344.208-.235.355-.53.44-.888a4.858 4.858 0 0 0 .008-2.184 1.84 1.84 0 0 0-.432-.864c-.208-.23-.501-.344-.88-.344-.378 0-.674.112-.888.336-.208.219-.354.504-.44.856a4.588 4.588 0 0 0-.128 1.096c0 .363.04.725.12 1.088.08.357.224.656.432.896.214.235.515.352.904.352zM153.717 20v-8.272h2.688v1.16c.117-.192.271-.381.463-.568a2.4 2.4 0 0 1 .745-.464c.304-.123.672-.184 1.104-.184.496 0 .962.096 1.4.288a2.44 2.44 0 0 1 1.08.92c.277.416.416.963.416 1.64V20h-2.736v-5.12c0-.363-.118-.635-.352-.816a1.262 1.262 0 0 0-.808-.28c-.203 0-.403.04-.6.12-.198.075-.36.19-.488.344a.842.842 0 0 0-.192.568V20h-2.72zM45.05 34v-8.676h.942c.244 0 .49.002.738.006.252 0 .47.002.654.006 1.056.02 1.914.202 2.574.546.664.34 1.15.826 1.458 1.458.312.628.468 1.386.468 2.274 0 .928-.166 1.718-.498 2.37a3.347 3.347 0 0 1-1.512 1.5c-.676.344-1.536.516-2.58.516H45.05zm1.482-1.206h.786c.596 0 1.122-.102 1.578-.306a2.283 2.283 0 0 0 1.068-1.008c.26-.464.39-1.084.39-1.86 0-.752-.12-1.354-.36-1.806a2.128 2.128 0 0 0-1.032-.978c-.448-.204-.984-.306-1.608-.306h-.822v6.264zM57.752 34.12c-.8 0-1.492-.176-2.076-.528-.58-.352-1.03-.86-1.35-1.524-.316-.664-.474-1.46-.474-2.388 0-.936.16-1.738.48-2.406.32-.668.772-1.18 1.356-1.536.588-.356 1.276-.534 2.064-.534s1.47.178 2.046.534c.58.356 1.028.868 1.344 1.536.316.668.474 1.47.474 2.406 0 .928-.156 1.724-.468 2.388-.312.66-.758 1.168-1.338 1.524-.58.352-1.266.528-2.058.528zm0-1.224c.472 0 .878-.11 1.218-.33.34-.224.6-.57.78-1.038.184-.472.276-1.082.276-1.83 0-.76-.092-1.38-.276-1.86-.184-.484-.446-.84-.786-1.068-.34-.228-.744-.342-1.212-.342-.472 0-.88.116-1.224.348-.34.228-.604.584-.792 1.068-.188.48-.282 1.098-.282 1.854 0 .748.094 1.358.282 1.83.188.468.452.814.792 1.038.344.22.752.33 1.224.33zM64.023 34v-8.676h3.522c.664 0 1.21.104 1.638.312.432.204.752.494.96.87.208.372.312.808.312 1.308 0 .464-.076.854-.228 1.17-.152.312-.35.568-.594.768-.24.196-.498.356-.774.48L70.515 34H68.99l-1.494-3.522H65.48V34h-1.458zm1.458-4.68h1.734c.552 0 .982-.128 1.29-.384.312-.256.468-.612.468-1.068 0-.448-.144-.794-.432-1.038-.288-.244-.668-.366-1.14-.366h-1.92v2.856zM72.427 34l3.114-8.676h1.585L80.24 34h-1.465l-.774-2.178h-3.324L73.897 34h-1.47zm2.598-3.474h2.61l-1.302-3.786-1.308 3.786zM85.995 34v-8.676h5.676l-.006 1.236h-4.188v2.496h3.696v1.218h-3.696V34h-1.482zM92.56 34l3.114-8.676h1.584L100.372 34h-1.464l-.774-2.178H94.81L94.03 34h-1.47zm2.598-3.474h2.61l-1.302-3.786-1.308 3.786zM105.533 34.12c-.796 0-1.48-.182-2.052-.546-.568-.368-1.006-.888-1.314-1.56-.304-.676-.456-1.478-.456-2.406 0-.924.152-1.714.456-2.37.304-.656.74-1.158 1.308-1.506.572-.352 1.258-.528 2.058-.528.636 0 1.2.13 1.692.39.492.256.888.604 1.188 1.044.304.44.484.93.54 1.47h-1.542a2.349 2.349 0 0 0-.336-.858 1.76 1.76 0 0 0-.636-.6c-.264-.148-.58-.222-.948-.222-.46 0-.852.11-1.176.33-.32.216-.566.56-.738 1.032-.168.472-.252 1.084-.252 1.836 0 1.14.188 1.97.564 2.49.376.52.91.78 1.602.78.368 0 .684-.08.948-.24.264-.164.476-.38.636-.648.164-.272.276-.568.336-.888h1.542a4.197 4.197 0 0 1-.3 1.128c-.148.36-.358.682-.63.966-.272.28-.614.502-1.026.666-.408.16-.896.24-1.464.24zM113.081 34v-7.362h-2.7v-1.314h6.768v1.314h-2.604V34h-1.464zM122.604 34.12c-.8 0-1.492-.176-2.076-.528-.58-.352-1.03-.86-1.35-1.524-.316-.664-.474-1.46-.474-2.388 0-.936.16-1.738.48-2.406.32-.668.772-1.18 1.356-1.536.588-.356 1.276-.534 2.064-.534s1.47.178 2.046.534c.58.356 1.028.868 1.344 1.536.316.668.474 1.47.474 2.406 0 .928-.156 1.724-.468 2.388-.312.66-.758 1.168-1.338 1.524-.58.352-1.266.528-2.058.528zm0-1.224c.472 0 .878-.11 1.218-.33.34-.224.6-.57.78-1.038.184-.472.276-1.082.276-1.83 0-.76-.092-1.38-.276-1.86-.184-.484-.446-.84-.786-1.068-.34-.228-.744-.342-1.212-.342-.472 0-.88.116-1.224.348-.34.228-.604.584-.792 1.068-.188.48-.282 1.098-.282 1.854 0 .748.094 1.358.282 1.83.188.468.452.814.792 1.038.344.22.752.33 1.224.33zM128.874 34v-8.676h3.522c.664 0 1.21.104 1.638.312.432.204.752.494.96.87.208.372.312.808.312 1.308 0 .464-.076.854-.228 1.17-.152.312-.35.568-.594.768-.24.196-.498.356-.774.48L135.366 34h-1.524l-1.494-3.522h-2.016V34h-1.458zm1.458-4.68h1.734c.552 0 .982-.128 1.29-.384.312-.256.468-.612.468-1.068 0-.448-.144-.794-.432-1.038-.288-.244-.668-.366-1.14-.366h-1.92v2.856zM139.657 34v-3.672l-2.988-5.004h1.584l2.142 3.732 2.106-3.732h1.596l-2.982 5.01V34h-1.458z"
    fill="currentColor"
  />
</svg>
